<mxfile host="Electron" agent="Mozilla/5.0 (Windows NT 10.0; Win64; x64) AppleWebKit/537.36 (KHTML, like Gecko) draw.io/24.7.17 Chrome/128.0.6613.36 Electron/32.0.1 Safari/537.36" version="24.7.17">
  <diagram name="Página-1" id="zeBWr13c1YpBIqqJs-zQ">
    <mxGraphModel dx="1235" dy="731" grid="1" gridSize="10" guides="1" tooltips="1" connect="1" arrows="1" fold="1" page="1" pageScale="1" pageWidth="827" pageHeight="1169" math="0" shadow="0">
      <root>
        <mxCell id="0" />
        <mxCell id="1" parent="0" />
        <mxCell id="KoBdJGmI44apPWLvyjWZ-1" value="pedirCantTriangulos" style="text;html=1;align=center;verticalAlign=middle;resizable=0;points=[];autosize=1;strokeColor=none;fillColor=none;" parent="1" vertex="1">
          <mxGeometry x="5" y="28" width="130" height="30" as="geometry" />
        </mxCell>
        <mxCell id="KoBdJGmI44apPWLvyjWZ-2" value="inicio" style="ellipse;whiteSpace=wrap;html=1;" parent="1" vertex="1">
          <mxGeometry x="30" y="58" width="80" height="40" as="geometry" />
        </mxCell>
        <mxCell id="KoBdJGmI44apPWLvyjWZ-3" value="" style="endArrow=classic;html=1;rounded=0;exitX=0.5;exitY=1;exitDx=0;exitDy=0;" parent="1" source="KoBdJGmI44apPWLvyjWZ-2" edge="1">
          <mxGeometry width="50" height="50" relative="1" as="geometry">
            <mxPoint x="140" y="170" as="sourcePoint" />
            <mxPoint x="70" y="140" as="targetPoint" />
          </mxGeometry>
        </mxCell>
        <mxCell id="KoBdJGmI44apPWLvyjWZ-4" value="&lt;font style=&quot;font-size: 8px;&quot;&gt;cantTriangulos = 0&lt;/font&gt;" style="shape=parallelogram;perimeter=parallelogramPerimeter;whiteSpace=wrap;html=1;fixedSize=1;size=7.5;" parent="1" vertex="1">
          <mxGeometry x="26.25" y="140" width="87.5" height="20" as="geometry" />
        </mxCell>
        <mxCell id="KoBdJGmI44apPWLvyjWZ-5" value="" style="endArrow=classic;html=1;rounded=0;exitX=0.5;exitY=1;exitDx=0;exitDy=0;" parent="1" source="KoBdJGmI44apPWLvyjWZ-4" edge="1">
          <mxGeometry width="50" height="50" relative="1" as="geometry">
            <mxPoint x="140" y="220" as="sourcePoint" />
            <mxPoint x="70" y="200" as="targetPoint" />
          </mxGeometry>
        </mxCell>
        <mxCell id="KoBdJGmI44apPWLvyjWZ-6" value="&lt;font style=&quot;font-size: 8px;&quot;&gt;cantTriangulos&amp;nbsp;&lt;/font&gt;&lt;div&gt;&lt;font style=&quot;font-size: 8px;&quot;&gt;es válido&amp;nbsp;&lt;/font&gt;&lt;/div&gt;&lt;div&gt;&lt;font style=&quot;font-size: 8px;&quot;&gt;y mayor que 0&lt;/font&gt;&lt;/div&gt;" style="rhombus;whiteSpace=wrap;html=1;" parent="1" vertex="1">
          <mxGeometry x="25" y="200" width="90" height="90" as="geometry" />
        </mxCell>
        <mxCell id="KoBdJGmI44apPWLvyjWZ-7" value="" style="endArrow=classic;html=1;rounded=0;exitX=1;exitY=0.5;exitDx=0;exitDy=0;" parent="1" source="KoBdJGmI44apPWLvyjWZ-6" edge="1">
          <mxGeometry width="50" height="50" relative="1" as="geometry">
            <mxPoint x="113.75" y="240" as="sourcePoint" />
            <mxPoint x="160" y="245" as="targetPoint" />
          </mxGeometry>
        </mxCell>
        <mxCell id="KoBdJGmI44apPWLvyjWZ-9" value="No" style="edgeLabel;html=1;align=center;verticalAlign=middle;resizable=0;points=[];" parent="KoBdJGmI44apPWLvyjWZ-7" vertex="1" connectable="0">
          <mxGeometry x="-0.3333" y="-1" relative="1" as="geometry">
            <mxPoint as="offset" />
          </mxGeometry>
        </mxCell>
        <mxCell id="KoBdJGmI44apPWLvyjWZ-8" value="error" style="shape=document;whiteSpace=wrap;html=1;boundedLbl=1;" parent="1" vertex="1">
          <mxGeometry x="160" y="227.5" width="60" height="35" as="geometry" />
        </mxCell>
        <mxCell id="KoBdJGmI44apPWLvyjWZ-10" value="" style="endArrow=none;html=1;rounded=0;" parent="1" edge="1">
          <mxGeometry width="50" height="50" relative="1" as="geometry">
            <mxPoint x="190" y="227.5" as="sourcePoint" />
            <mxPoint x="190" y="180" as="targetPoint" />
          </mxGeometry>
        </mxCell>
        <mxCell id="KoBdJGmI44apPWLvyjWZ-11" value="" style="endArrow=classic;html=1;rounded=0;" parent="1" edge="1">
          <mxGeometry width="50" height="50" relative="1" as="geometry">
            <mxPoint x="190" y="180" as="sourcePoint" />
            <mxPoint x="70" y="180" as="targetPoint" />
          </mxGeometry>
        </mxCell>
        <mxCell id="KoBdJGmI44apPWLvyjWZ-13" value="" style="endArrow=classic;html=1;rounded=0;exitX=0.5;exitY=1;exitDx=0;exitDy=0;" parent="1" source="KoBdJGmI44apPWLvyjWZ-6" edge="1">
          <mxGeometry width="50" height="50" relative="1" as="geometry">
            <mxPoint x="110" y="340" as="sourcePoint" />
            <mxPoint x="70" y="330" as="targetPoint" />
          </mxGeometry>
        </mxCell>
        <mxCell id="KoBdJGmI44apPWLvyjWZ-14" value="Si" style="edgeLabel;html=1;align=center;verticalAlign=middle;resizable=0;points=[];" parent="KoBdJGmI44apPWLvyjWZ-13" vertex="1" connectable="0">
          <mxGeometry x="-0.2288" relative="1" as="geometry">
            <mxPoint as="offset" />
          </mxGeometry>
        </mxCell>
        <mxCell id="KoBdJGmI44apPWLvyjWZ-15" value="&lt;font style=&quot;font-size: 6px;&quot;&gt;retornar cantTriangulos&lt;/font&gt;" style="rounded=0;whiteSpace=wrap;html=1;" parent="1" vertex="1">
          <mxGeometry x="36.25" y="330" width="67.5" height="20" as="geometry" />
        </mxCell>
        <mxCell id="KoBdJGmI44apPWLvyjWZ-16" value="" style="endArrow=classic;html=1;rounded=0;exitX=0.5;exitY=1;exitDx=0;exitDy=0;" parent="1" source="KoBdJGmI44apPWLvyjWZ-15" edge="1">
          <mxGeometry width="50" height="50" relative="1" as="geometry">
            <mxPoint x="110" y="330" as="sourcePoint" />
            <mxPoint x="70" y="380" as="targetPoint" />
          </mxGeometry>
        </mxCell>
        <mxCell id="KoBdJGmI44apPWLvyjWZ-17" value="fin" style="ellipse;whiteSpace=wrap;html=1;" parent="1" vertex="1">
          <mxGeometry x="47.5" y="380" width="45" height="30" as="geometry" />
        </mxCell>
        <mxCell id="KoBdJGmI44apPWLvyjWZ-19" value="pedirLado(int lado)" style="text;html=1;align=center;verticalAlign=middle;resizable=0;points=[];autosize=1;strokeColor=none;fillColor=none;" parent="1" vertex="1">
          <mxGeometry x="260" y="28" width="120" height="30" as="geometry" />
        </mxCell>
        <mxCell id="KoBdJGmI44apPWLvyjWZ-20" value="inicio" style="ellipse;whiteSpace=wrap;html=1;" parent="1" vertex="1">
          <mxGeometry x="275" y="58" width="80" height="40" as="geometry" />
        </mxCell>
        <mxCell id="KoBdJGmI44apPWLvyjWZ-21" value="" style="endArrow=classic;html=1;rounded=0;exitX=0.5;exitY=1;exitDx=0;exitDy=0;" parent="1" source="KoBdJGmI44apPWLvyjWZ-20" edge="1">
          <mxGeometry width="50" height="50" relative="1" as="geometry">
            <mxPoint x="385" y="170" as="sourcePoint" />
            <mxPoint x="315" y="140" as="targetPoint" />
          </mxGeometry>
        </mxCell>
        <mxCell id="KoBdJGmI44apPWLvyjWZ-22" value="&lt;font style=&quot;font-size: 8px;&quot;&gt;longitud = 0&lt;/font&gt;" style="shape=parallelogram;perimeter=parallelogramPerimeter;whiteSpace=wrap;html=1;fixedSize=1;size=7.5;" parent="1" vertex="1">
          <mxGeometry x="271.25" y="140" width="87.5" height="20" as="geometry" />
        </mxCell>
        <mxCell id="KoBdJGmI44apPWLvyjWZ-23" value="" style="endArrow=classic;html=1;rounded=0;exitX=0.5;exitY=1;exitDx=0;exitDy=0;" parent="1" source="KoBdJGmI44apPWLvyjWZ-22" edge="1">
          <mxGeometry width="50" height="50" relative="1" as="geometry">
            <mxPoint x="385" y="220" as="sourcePoint" />
            <mxPoint x="315" y="200" as="targetPoint" />
          </mxGeometry>
        </mxCell>
        <mxCell id="KoBdJGmI44apPWLvyjWZ-24" value="&lt;div&gt;&lt;font style=&quot;font-size: 8px;&quot;&gt;longitud es válido&amp;nbsp;&lt;/font&gt;&lt;/div&gt;&lt;div&gt;&lt;font style=&quot;font-size: 8px;&quot;&gt;y mayor que 0&lt;/font&gt;&lt;/div&gt;" style="rhombus;whiteSpace=wrap;html=1;" parent="1" vertex="1">
          <mxGeometry x="267.5" y="300" width="90" height="90" as="geometry" />
        </mxCell>
        <mxCell id="KoBdJGmI44apPWLvyjWZ-25" value="" style="endArrow=classic;html=1;rounded=0;exitX=1;exitY=0.5;exitDx=0;exitDy=0;" parent="1" source="KoBdJGmI44apPWLvyjWZ-24" edge="1">
          <mxGeometry width="50" height="50" relative="1" as="geometry">
            <mxPoint x="360" y="340" as="sourcePoint" />
            <mxPoint x="406.25" y="345" as="targetPoint" />
          </mxGeometry>
        </mxCell>
        <mxCell id="KoBdJGmI44apPWLvyjWZ-26" value="No" style="edgeLabel;html=1;align=center;verticalAlign=middle;resizable=0;points=[];" parent="KoBdJGmI44apPWLvyjWZ-25" vertex="1" connectable="0">
          <mxGeometry x="-0.3333" y="-1" relative="1" as="geometry">
            <mxPoint as="offset" />
          </mxGeometry>
        </mxCell>
        <mxCell id="KoBdJGmI44apPWLvyjWZ-27" value="error" style="shape=document;whiteSpace=wrap;html=1;boundedLbl=1;" parent="1" vertex="1">
          <mxGeometry x="406.25" y="327.5" width="60" height="35" as="geometry" />
        </mxCell>
        <mxCell id="KoBdJGmI44apPWLvyjWZ-28" value="" style="endArrow=none;html=1;rounded=0;" parent="1" edge="1">
          <mxGeometry width="50" height="50" relative="1" as="geometry">
            <mxPoint x="436.25" y="327.5" as="sourcePoint" />
            <mxPoint x="436.25" y="280" as="targetPoint" />
          </mxGeometry>
        </mxCell>
        <mxCell id="KoBdJGmI44apPWLvyjWZ-29" value="" style="endArrow=classic;html=1;rounded=0;" parent="1" edge="1">
          <mxGeometry width="50" height="50" relative="1" as="geometry">
            <mxPoint x="436.25" y="280" as="sourcePoint" />
            <mxPoint x="316.25" y="280" as="targetPoint" />
          </mxGeometry>
        </mxCell>
        <mxCell id="KoBdJGmI44apPWLvyjWZ-30" value="" style="endArrow=classic;html=1;rounded=0;exitX=0.5;exitY=1;exitDx=0;exitDy=0;" parent="1" source="KoBdJGmI44apPWLvyjWZ-24" edge="1">
          <mxGeometry width="50" height="50" relative="1" as="geometry">
            <mxPoint x="356.25" y="440" as="sourcePoint" />
            <mxPoint x="316.25" y="430" as="targetPoint" />
          </mxGeometry>
        </mxCell>
        <mxCell id="KoBdJGmI44apPWLvyjWZ-31" value="Si" style="edgeLabel;html=1;align=center;verticalAlign=middle;resizable=0;points=[];" parent="KoBdJGmI44apPWLvyjWZ-30" vertex="1" connectable="0">
          <mxGeometry x="-0.2288" relative="1" as="geometry">
            <mxPoint as="offset" />
          </mxGeometry>
        </mxCell>
        <mxCell id="KoBdJGmI44apPWLvyjWZ-32" value="&lt;font style=&quot;font-size: 6px;&quot;&gt;retornar cantTriangulos&lt;/font&gt;" style="rounded=0;whiteSpace=wrap;html=1;" parent="1" vertex="1">
          <mxGeometry x="282.5" y="430" width="67.5" height="20" as="geometry" />
        </mxCell>
        <mxCell id="KoBdJGmI44apPWLvyjWZ-35" value="lado == 1&amp;nbsp;" style="rhombus;whiteSpace=wrap;html=1;" parent="1" vertex="1">
          <mxGeometry x="275" y="200" width="75" height="60" as="geometry" />
        </mxCell>
        <mxCell id="KoBdJGmI44apPWLvyjWZ-37" value="" style="endArrow=classic;html=1;rounded=0;exitX=0.5;exitY=1;exitDx=0;exitDy=0;" parent="1" source="KoBdJGmI44apPWLvyjWZ-35" target="KoBdJGmI44apPWLvyjWZ-24" edge="1">
          <mxGeometry width="50" height="50" relative="1" as="geometry">
            <mxPoint x="250" y="365" as="sourcePoint" />
            <mxPoint x="300" y="315" as="targetPoint" />
          </mxGeometry>
        </mxCell>
        <mxCell id="KoBdJGmI44apPWLvyjWZ-38" value="Si" style="edgeLabel;html=1;align=center;verticalAlign=middle;resizable=0;points=[];" parent="KoBdJGmI44apPWLvyjWZ-37" vertex="1" connectable="0">
          <mxGeometry x="-0.457" y="-1" relative="1" as="geometry">
            <mxPoint as="offset" />
          </mxGeometry>
        </mxCell>
        <mxCell id="KoBdJGmI44apPWLvyjWZ-39" value="" style="endArrow=classic;html=1;rounded=0;entryX=0;entryY=0.5;entryDx=0;entryDy=0;" parent="1" target="KoBdJGmI44apPWLvyjWZ-41" edge="1">
          <mxGeometry width="50" height="50" relative="1" as="geometry">
            <mxPoint x="350" y="230" as="sourcePoint" />
            <mxPoint x="540" y="230" as="targetPoint" />
          </mxGeometry>
        </mxCell>
        <mxCell id="KoBdJGmI44apPWLvyjWZ-40" value="No" style="edgeLabel;html=1;align=center;verticalAlign=middle;resizable=0;points=[];" parent="KoBdJGmI44apPWLvyjWZ-39" vertex="1" connectable="0">
          <mxGeometry x="-0.0994" y="1" relative="1" as="geometry">
            <mxPoint as="offset" />
          </mxGeometry>
        </mxCell>
        <mxCell id="KoBdJGmI44apPWLvyjWZ-41" value="lado == 2" style="rhombus;whiteSpace=wrap;html=1;" parent="1" vertex="1">
          <mxGeometry x="545" y="190" width="80" height="80" as="geometry" />
        </mxCell>
        <mxCell id="KoBdJGmI44apPWLvyjWZ-42" value="Si" style="endArrow=classic;html=1;rounded=0;exitX=0.5;exitY=1;exitDx=0;exitDy=0;" parent="1" edge="1">
          <mxGeometry width="50" height="50" relative="1" as="geometry">
            <mxPoint x="584.8" y="270" as="sourcePoint" />
            <mxPoint x="584.8" y="320" as="targetPoint" />
          </mxGeometry>
        </mxCell>
        <mxCell id="KoBdJGmI44apPWLvyjWZ-43" value="&lt;div&gt;&lt;font style=&quot;font-size: 8px;&quot;&gt;longitud es válido&amp;nbsp;&lt;/font&gt;&lt;/div&gt;&lt;div&gt;&lt;font style=&quot;font-size: 8px;&quot;&gt;y mayor que 0&lt;/font&gt;&lt;/div&gt;" style="rhombus;whiteSpace=wrap;html=1;" parent="1" vertex="1">
          <mxGeometry x="540" y="320" width="90" height="90" as="geometry" />
        </mxCell>
        <mxCell id="KoBdJGmI44apPWLvyjWZ-44" value="" style="endArrow=classic;html=1;rounded=0;exitX=1;exitY=0.5;exitDx=0;exitDy=0;" parent="1" source="KoBdJGmI44apPWLvyjWZ-43" edge="1">
          <mxGeometry width="50" height="50" relative="1" as="geometry">
            <mxPoint x="632.5" y="360" as="sourcePoint" />
            <mxPoint x="678.75" y="365" as="targetPoint" />
          </mxGeometry>
        </mxCell>
        <mxCell id="KoBdJGmI44apPWLvyjWZ-45" value="No" style="edgeLabel;html=1;align=center;verticalAlign=middle;resizable=0;points=[];" parent="KoBdJGmI44apPWLvyjWZ-44" vertex="1" connectable="0">
          <mxGeometry x="-0.3333" y="-1" relative="1" as="geometry">
            <mxPoint as="offset" />
          </mxGeometry>
        </mxCell>
        <mxCell id="KoBdJGmI44apPWLvyjWZ-46" value="error" style="shape=document;whiteSpace=wrap;html=1;boundedLbl=1;" parent="1" vertex="1">
          <mxGeometry x="678.75" y="347.5" width="60" height="35" as="geometry" />
        </mxCell>
        <mxCell id="KoBdJGmI44apPWLvyjWZ-47" value="" style="endArrow=none;html=1;rounded=0;" parent="1" edge="1">
          <mxGeometry width="50" height="50" relative="1" as="geometry">
            <mxPoint x="708.75" y="347.5" as="sourcePoint" />
            <mxPoint x="708.75" y="300" as="targetPoint" />
          </mxGeometry>
        </mxCell>
        <mxCell id="KoBdJGmI44apPWLvyjWZ-48" value="" style="endArrow=classic;html=1;rounded=0;" parent="1" edge="1">
          <mxGeometry width="50" height="50" relative="1" as="geometry">
            <mxPoint x="708.75" y="300" as="sourcePoint" />
            <mxPoint x="588.75" y="300" as="targetPoint" />
          </mxGeometry>
        </mxCell>
        <mxCell id="KoBdJGmI44apPWLvyjWZ-49" value="" style="endArrow=classic;html=1;rounded=0;exitX=0.5;exitY=1;exitDx=0;exitDy=0;" parent="1" source="KoBdJGmI44apPWLvyjWZ-43" edge="1">
          <mxGeometry width="50" height="50" relative="1" as="geometry">
            <mxPoint x="628.75" y="460" as="sourcePoint" />
            <mxPoint x="588.75" y="450" as="targetPoint" />
          </mxGeometry>
        </mxCell>
        <mxCell id="KoBdJGmI44apPWLvyjWZ-50" value="Si" style="edgeLabel;html=1;align=center;verticalAlign=middle;resizable=0;points=[];" parent="KoBdJGmI44apPWLvyjWZ-49" vertex="1" connectable="0">
          <mxGeometry x="-0.2288" relative="1" as="geometry">
            <mxPoint as="offset" />
          </mxGeometry>
        </mxCell>
        <mxCell id="KoBdJGmI44apPWLvyjWZ-51" value="&lt;font style=&quot;font-size: 6px;&quot;&gt;retornar cantTriangulos&lt;/font&gt;" style="rounded=0;whiteSpace=wrap;html=1;" parent="1" vertex="1">
          <mxGeometry x="555" y="450" width="67.5" height="20" as="geometry" />
        </mxCell>
        <mxCell id="KoBdJGmI44apPWLvyjWZ-52" value="" style="endArrow=classic;html=1;rounded=0;exitX=0.5;exitY=1;exitDx=0;exitDy=0;" parent="1" source="KoBdJGmI44apPWLvyjWZ-51" edge="1">
          <mxGeometry width="50" height="50" relative="1" as="geometry">
            <mxPoint x="628.75" y="450" as="sourcePoint" />
            <mxPoint x="588.75" y="500" as="targetPoint" />
          </mxGeometry>
        </mxCell>
        <mxCell id="KoBdJGmI44apPWLvyjWZ-55" value="" style="endArrow=none;html=1;rounded=0;" parent="1" edge="1">
          <mxGeometry width="50" height="50" relative="1" as="geometry">
            <mxPoint x="625" y="230" as="sourcePoint" />
            <mxPoint x="790" y="230" as="targetPoint" />
          </mxGeometry>
        </mxCell>
        <mxCell id="KoBdJGmI44apPWLvyjWZ-57" value="No" style="edgeLabel;html=1;align=center;verticalAlign=middle;resizable=0;points=[];" parent="KoBdJGmI44apPWLvyjWZ-55" vertex="1" connectable="0">
          <mxGeometry x="0.2133" relative="1" as="geometry">
            <mxPoint as="offset" />
          </mxGeometry>
        </mxCell>
        <mxCell id="KoBdJGmI44apPWLvyjWZ-61" value="" style="endArrow=none;html=1;rounded=0;" parent="1" edge="1">
          <mxGeometry width="50" height="50" relative="1" as="geometry">
            <mxPoint x="320" y="520" as="sourcePoint" />
            <mxPoint x="321.25" y="450" as="targetPoint" />
          </mxGeometry>
        </mxCell>
        <mxCell id="KoBdJGmI44apPWLvyjWZ-62" value="fin" style="ellipse;whiteSpace=wrap;html=1;" parent="1" vertex="1">
          <mxGeometry x="558.75" y="500" width="60" height="40" as="geometry" />
        </mxCell>
        <mxCell id="KoBdJGmI44apPWLvyjWZ-63" value="" style="endArrow=classic;html=1;rounded=0;entryX=0;entryY=0.5;entryDx=0;entryDy=0;" parent="1" target="KoBdJGmI44apPWLvyjWZ-62" edge="1">
          <mxGeometry width="50" height="50" relative="1" as="geometry">
            <mxPoint x="320" y="520" as="sourcePoint" />
            <mxPoint x="370" y="470" as="targetPoint" />
          </mxGeometry>
        </mxCell>
        <mxCell id="KoBdJGmI44apPWLvyjWZ-65" value="" style="endArrow=classic;html=1;rounded=0;" parent="1" edge="1">
          <mxGeometry width="50" height="50" relative="1" as="geometry">
            <mxPoint x="790" y="230" as="sourcePoint" />
            <mxPoint x="790" y="420" as="targetPoint" />
          </mxGeometry>
        </mxCell>
        <mxCell id="KoBdJGmI44apPWLvyjWZ-66" value="&lt;span style=&quot;font-size: 6px;&quot;&gt;retornar cantTriangulos&lt;/span&gt;" style="rounded=0;whiteSpace=wrap;html=1;" parent="1" vertex="1">
          <mxGeometry x="760" y="420" width="67" height="20" as="geometry" />
        </mxCell>
        <mxCell id="KoBdJGmI44apPWLvyjWZ-67" value="" style="endArrow=none;html=1;rounded=0;" parent="1" edge="1">
          <mxGeometry width="50" height="50" relative="1" as="geometry">
            <mxPoint x="789" y="520" as="sourcePoint" />
            <mxPoint x="788.75" y="440" as="targetPoint" />
          </mxGeometry>
        </mxCell>
        <mxCell id="KoBdJGmI44apPWLvyjWZ-68" value="" style="endArrow=classic;html=1;rounded=0;" parent="1" edge="1">
          <mxGeometry width="50" height="50" relative="1" as="geometry">
            <mxPoint x="790" y="520" as="sourcePoint" />
            <mxPoint x="620" y="520" as="targetPoint" />
          </mxGeometry>
        </mxCell>
        <mxCell id="KoBdJGmI44apPWLvyjWZ-69" value="pedirAngulo" style="text;html=1;align=center;verticalAlign=middle;resizable=0;points=[];autosize=1;strokeColor=none;fillColor=none;" parent="1" vertex="1">
          <mxGeometry x="40" y="570" width="90" height="30" as="geometry" />
        </mxCell>
        <mxCell id="KoBdJGmI44apPWLvyjWZ-70" value="inicio" style="ellipse;whiteSpace=wrap;html=1;" parent="1" vertex="1">
          <mxGeometry x="45" y="600" width="80" height="40" as="geometry" />
        </mxCell>
        <mxCell id="KoBdJGmI44apPWLvyjWZ-71" value="" style="endArrow=classic;html=1;rounded=0;exitX=0.5;exitY=1;exitDx=0;exitDy=0;" parent="1" source="KoBdJGmI44apPWLvyjWZ-70" edge="1">
          <mxGeometry width="50" height="50" relative="1" as="geometry">
            <mxPoint x="155" y="712" as="sourcePoint" />
            <mxPoint x="85" y="682" as="targetPoint" />
          </mxGeometry>
        </mxCell>
        <mxCell id="KoBdJGmI44apPWLvyjWZ-72" value="&lt;font style=&quot;font-size: 8px;&quot;&gt;amplitud = 0&lt;/font&gt;" style="shape=parallelogram;perimeter=parallelogramPerimeter;whiteSpace=wrap;html=1;fixedSize=1;size=7.5;" parent="1" vertex="1">
          <mxGeometry x="41.25" y="682" width="87.5" height="20" as="geometry" />
        </mxCell>
        <mxCell id="KoBdJGmI44apPWLvyjWZ-73" value="" style="endArrow=classic;html=1;rounded=0;exitX=0.5;exitY=1;exitDx=0;exitDy=0;" parent="1" source="KoBdJGmI44apPWLvyjWZ-72" edge="1">
          <mxGeometry width="50" height="50" relative="1" as="geometry">
            <mxPoint x="155" y="762" as="sourcePoint" />
            <mxPoint x="85" y="742" as="targetPoint" />
          </mxGeometry>
        </mxCell>
        <mxCell id="KoBdJGmI44apPWLvyjWZ-74" value="&lt;font style=&quot;font-size: 8px;&quot;&gt;amplitud&amp;nbsp;&lt;/font&gt;&lt;div&gt;&lt;font style=&quot;font-size: 8px;&quot;&gt;no es válido,&amp;nbsp;&lt;/font&gt;&lt;/div&gt;&lt;div&gt;&lt;span style=&quot;font-size: 8px; background-color: initial;&quot;&gt;menor que 0&amp;nbsp;&lt;/span&gt;&lt;/div&gt;&lt;div&gt;&lt;span style=&quot;font-size: 8px; background-color: initial;&quot;&gt;o mayor igual&lt;/span&gt;&lt;/div&gt;&lt;div&gt;&lt;span style=&quot;font-size: 8px; background-color: initial;&quot;&gt;&amp;nbsp;que 180&lt;/span&gt;&lt;/div&gt;" style="rhombus;whiteSpace=wrap;html=1;" parent="1" vertex="1">
          <mxGeometry x="35" y="742" width="100" height="108" as="geometry" />
        </mxCell>
        <mxCell id="KoBdJGmI44apPWLvyjWZ-75" value="" style="endArrow=classic;html=1;rounded=0;exitX=1;exitY=0.5;exitDx=0;exitDy=0;entryX=0;entryY=0.75;entryDx=0;entryDy=0;" parent="1" source="KoBdJGmI44apPWLvyjWZ-74" target="KoBdJGmI44apPWLvyjWZ-77" edge="1">
          <mxGeometry width="50" height="50" relative="1" as="geometry">
            <mxPoint x="128.75" y="782" as="sourcePoint" />
            <mxPoint x="170" y="800" as="targetPoint" />
          </mxGeometry>
        </mxCell>
        <mxCell id="KoBdJGmI44apPWLvyjWZ-76" value="Si" style="edgeLabel;html=1;align=center;verticalAlign=middle;resizable=0;points=[];" parent="KoBdJGmI44apPWLvyjWZ-75" vertex="1" connectable="0">
          <mxGeometry x="-0.3333" y="-1" relative="1" as="geometry">
            <mxPoint as="offset" />
          </mxGeometry>
        </mxCell>
        <mxCell id="KoBdJGmI44apPWLvyjWZ-77" value="error" style="shape=document;whiteSpace=wrap;html=1;boundedLbl=1;" parent="1" vertex="1">
          <mxGeometry x="175" y="769.5" width="60" height="35" as="geometry" />
        </mxCell>
        <mxCell id="KoBdJGmI44apPWLvyjWZ-78" value="" style="endArrow=none;html=1;rounded=0;" parent="1" edge="1">
          <mxGeometry width="50" height="50" relative="1" as="geometry">
            <mxPoint x="205" y="769.5" as="sourcePoint" />
            <mxPoint x="205" y="722" as="targetPoint" />
          </mxGeometry>
        </mxCell>
        <mxCell id="KoBdJGmI44apPWLvyjWZ-79" value="" style="endArrow=classic;html=1;rounded=0;" parent="1" edge="1">
          <mxGeometry width="50" height="50" relative="1" as="geometry">
            <mxPoint x="205" y="722" as="sourcePoint" />
            <mxPoint x="85" y="722" as="targetPoint" />
          </mxGeometry>
        </mxCell>
        <mxCell id="KoBdJGmI44apPWLvyjWZ-80" value="" style="endArrow=classic;html=1;rounded=0;exitX=0.5;exitY=1;exitDx=0;exitDy=0;entryX=0.5;entryY=0;entryDx=0;entryDy=0;" parent="1" source="KoBdJGmI44apPWLvyjWZ-74" target="KoBdJGmI44apPWLvyjWZ-82" edge="1">
          <mxGeometry width="50" height="50" relative="1" as="geometry">
            <mxPoint x="125" y="882" as="sourcePoint" />
            <mxPoint x="85" y="872" as="targetPoint" />
          </mxGeometry>
        </mxCell>
        <mxCell id="KoBdJGmI44apPWLvyjWZ-85" value="No" style="edgeLabel;html=1;align=center;verticalAlign=middle;resizable=0;points=[];" parent="KoBdJGmI44apPWLvyjWZ-80" vertex="1" connectable="0">
          <mxGeometry x="-0.2765" relative="1" as="geometry">
            <mxPoint as="offset" />
          </mxGeometry>
        </mxCell>
        <mxCell id="KoBdJGmI44apPWLvyjWZ-82" value="&lt;font style=&quot;font-size: 9px;&quot;&gt;retornar amplitud&lt;/font&gt;" style="rounded=0;whiteSpace=wrap;html=1;" parent="1" vertex="1">
          <mxGeometry x="46.25" y="880" width="78.75" height="20" as="geometry" />
        </mxCell>
        <mxCell id="KoBdJGmI44apPWLvyjWZ-83" value="" style="endArrow=classic;html=1;rounded=0;exitX=0.5;exitY=1;exitDx=0;exitDy=0;" parent="1" source="KoBdJGmI44apPWLvyjWZ-82" edge="1">
          <mxGeometry width="50" height="50" relative="1" as="geometry">
            <mxPoint x="125" y="880" as="sourcePoint" />
            <mxPoint x="85" y="930" as="targetPoint" />
          </mxGeometry>
        </mxCell>
        <mxCell id="KoBdJGmI44apPWLvyjWZ-84" value="fin" style="ellipse;whiteSpace=wrap;html=1;" parent="1" vertex="1">
          <mxGeometry x="62.5" y="930" width="45" height="30" as="geometry" />
        </mxCell>
        <mxCell id="KoBdJGmI44apPWLvyjWZ-86" value="clasificar(float area)" style="text;html=1;align=center;verticalAlign=middle;resizable=0;points=[];autosize=1;strokeColor=none;fillColor=none;" parent="1" vertex="1">
          <mxGeometry x="285" y="570" width="130" height="30" as="geometry" />
        </mxCell>
        <mxCell id="KoBdJGmI44apPWLvyjWZ-87" value="inicio" style="ellipse;whiteSpace=wrap;html=1;" parent="1" vertex="1">
          <mxGeometry x="310" y="600" width="80" height="40" as="geometry" />
        </mxCell>
        <mxCell id="KoBdJGmI44apPWLvyjWZ-88" value="" style="endArrow=classic;html=1;rounded=0;exitX=0.5;exitY=1;exitDx=0;exitDy=0;" parent="1" source="KoBdJGmI44apPWLvyjWZ-87" edge="1">
          <mxGeometry width="50" height="50" relative="1" as="geometry">
            <mxPoint x="420" y="712" as="sourcePoint" />
            <mxPoint x="350" y="682" as="targetPoint" />
          </mxGeometry>
        </mxCell>
        <mxCell id="KoBdJGmI44apPWLvyjWZ-89" value="&lt;font style=&quot;font-size: 8px;&quot;&gt;grande = false&lt;/font&gt;" style="shape=parallelogram;perimeter=parallelogramPerimeter;whiteSpace=wrap;html=1;fixedSize=1;size=7.5;" parent="1" vertex="1">
          <mxGeometry x="306.25" y="682" width="87.5" height="20" as="geometry" />
        </mxCell>
        <mxCell id="KoBdJGmI44apPWLvyjWZ-90" value="" style="endArrow=classic;html=1;rounded=0;exitX=0.5;exitY=1;exitDx=0;exitDy=0;" parent="1" source="KoBdJGmI44apPWLvyjWZ-89" edge="1">
          <mxGeometry width="50" height="50" relative="1" as="geometry">
            <mxPoint x="420" y="762" as="sourcePoint" />
            <mxPoint x="350" y="742" as="targetPoint" />
          </mxGeometry>
        </mxCell>
        <mxCell id="KoBdJGmI44apPWLvyjWZ-91" value="&lt;span style=&quot;font-size: 8px;&quot;&gt;area &amp;lt; 12&lt;/span&gt;" style="rhombus;whiteSpace=wrap;html=1;" parent="1" vertex="1">
          <mxGeometry x="315.63" y="742" width="70" height="58" as="geometry" />
        </mxCell>
        <mxCell id="KoBdJGmI44apPWLvyjWZ-102" value="" style="endArrow=classic;html=1;rounded=0;" parent="1" edge="1">
          <mxGeometry width="50" height="50" relative="1" as="geometry">
            <mxPoint x="350" y="800" as="sourcePoint" />
            <mxPoint x="350" y="830" as="targetPoint" />
          </mxGeometry>
        </mxCell>
        <mxCell id="KoBdJGmI44apPWLvyjWZ-105" value="Si" style="edgeLabel;html=1;align=center;verticalAlign=middle;resizable=0;points=[];" parent="KoBdJGmI44apPWLvyjWZ-102" vertex="1" connectable="0">
          <mxGeometry x="-0.4593" relative="1" as="geometry">
            <mxPoint as="offset" />
          </mxGeometry>
        </mxCell>
        <mxCell id="KoBdJGmI44apPWLvyjWZ-103" value="&lt;font style=&quot;font-size: 6px;&quot;&gt;area se clasifica como pequeña&lt;/font&gt;" style="shape=document;whiteSpace=wrap;html=1;boundedLbl=1;" parent="1" vertex="1">
          <mxGeometry x="314.38" y="830" width="72.5" height="40" as="geometry" />
        </mxCell>
        <mxCell id="KoBdJGmI44apPWLvyjWZ-106" value="" style="endArrow=classic;html=1;rounded=0;" parent="1" edge="1">
          <mxGeometry width="50" height="50" relative="1" as="geometry">
            <mxPoint x="385.63" y="769.5" as="sourcePoint" />
            <mxPoint x="440" y="770" as="targetPoint" />
          </mxGeometry>
        </mxCell>
        <mxCell id="KoBdJGmI44apPWLvyjWZ-107" value="No" style="edgeLabel;html=1;align=center;verticalAlign=middle;resizable=0;points=[];" parent="KoBdJGmI44apPWLvyjWZ-106" vertex="1" connectable="0">
          <mxGeometry x="-0.0047" relative="1" as="geometry">
            <mxPoint as="offset" />
          </mxGeometry>
        </mxCell>
        <mxCell id="KoBdJGmI44apPWLvyjWZ-108" value="&lt;span style=&quot;font-size: 8px;&quot;&gt;area &amp;lt; 12&lt;/span&gt;&lt;div&gt;&lt;span style=&quot;font-size: 8px;&quot;&gt;y&amp;nbsp;&lt;/span&gt;&lt;/div&gt;&lt;div&gt;&lt;span style=&quot;font-size: 8px;&quot;&gt;area &amp;gt; 42&lt;/span&gt;&lt;/div&gt;" style="rhombus;whiteSpace=wrap;html=1;" parent="1" vertex="1">
          <mxGeometry x="440" y="737" width="90" height="68" as="geometry" />
        </mxCell>
        <mxCell id="KoBdJGmI44apPWLvyjWZ-109" value="" style="endArrow=classic;html=1;rounded=0;exitX=0.5;exitY=1;exitDx=0;exitDy=0;" parent="1" source="KoBdJGmI44apPWLvyjWZ-108" edge="1">
          <mxGeometry width="50" height="50" relative="1" as="geometry">
            <mxPoint x="420" y="830" as="sourcePoint" />
            <mxPoint x="485" y="840" as="targetPoint" />
          </mxGeometry>
        </mxCell>
        <mxCell id="KoBdJGmI44apPWLvyjWZ-110" value="Si" style="edgeLabel;html=1;align=center;verticalAlign=middle;resizable=0;points=[];" parent="KoBdJGmI44apPWLvyjWZ-109" vertex="1" connectable="0">
          <mxGeometry x="-0.3658" y="-1" relative="1" as="geometry">
            <mxPoint as="offset" />
          </mxGeometry>
        </mxCell>
        <mxCell id="KoBdJGmI44apPWLvyjWZ-111" value="&lt;font style=&quot;font-size: 6px;&quot;&gt;area se clasifica como mediana&lt;/font&gt;" style="shape=document;whiteSpace=wrap;html=1;boundedLbl=1;" parent="1" vertex="1">
          <mxGeometry x="448.75" y="840" width="72.5" height="40" as="geometry" />
        </mxCell>
        <mxCell id="KoBdJGmI44apPWLvyjWZ-112" value="" style="endArrow=classic;html=1;rounded=0;" parent="1" edge="1">
          <mxGeometry width="50" height="50" relative="1" as="geometry">
            <mxPoint x="530" y="769.5" as="sourcePoint" />
            <mxPoint x="580" y="770" as="targetPoint" />
          </mxGeometry>
        </mxCell>
        <mxCell id="KoBdJGmI44apPWLvyjWZ-113" value="No" style="edgeLabel;html=1;align=center;verticalAlign=middle;resizable=0;points=[];" parent="KoBdJGmI44apPWLvyjWZ-112" vertex="1" connectable="0">
          <mxGeometry x="-0.2961" y="1" relative="1" as="geometry">
            <mxPoint as="offset" />
          </mxGeometry>
        </mxCell>
        <mxCell id="KoBdJGmI44apPWLvyjWZ-114" value="&lt;font style=&quot;font-size: 6px;&quot;&gt;grande = true&lt;/font&gt;" style="rounded=0;whiteSpace=wrap;html=1;" parent="1" vertex="1">
          <mxGeometry x="580" y="761" width="50" height="20" as="geometry" />
        </mxCell>
        <mxCell id="KoBdJGmI44apPWLvyjWZ-115" value="" style="endArrow=classic;html=1;rounded=0;exitX=0.5;exitY=1;exitDx=0;exitDy=0;" parent="1" source="KoBdJGmI44apPWLvyjWZ-114" edge="1">
          <mxGeometry width="50" height="50" relative="1" as="geometry">
            <mxPoint x="540" y="840" as="sourcePoint" />
            <mxPoint x="605" y="810" as="targetPoint" />
          </mxGeometry>
        </mxCell>
        <mxCell id="KoBdJGmI44apPWLvyjWZ-116" value="&lt;font style=&quot;font-size: 6px;&quot;&gt;area se clasifica como grande&lt;/font&gt;" style="shape=document;whiteSpace=wrap;html=1;boundedLbl=1;" parent="1" vertex="1">
          <mxGeometry x="568.75" y="810" width="72.5" height="40" as="geometry" />
        </mxCell>
        <mxCell id="KoBdJGmI44apPWLvyjWZ-117" value="" style="endArrow=classic;html=1;rounded=0;exitX=0.494;exitY=0.932;exitDx=0;exitDy=0;exitPerimeter=0;" parent="1" source="KoBdJGmI44apPWLvyjWZ-116" edge="1">
          <mxGeometry width="50" height="50" relative="1" as="geometry">
            <mxPoint x="490" y="910" as="sourcePoint" />
            <mxPoint x="605" y="870" as="targetPoint" />
          </mxGeometry>
        </mxCell>
        <mxCell id="KoBdJGmI44apPWLvyjWZ-118" value="&lt;font style=&quot;font-size: 6px;&quot;&gt;retornar grande&lt;/font&gt;" style="rounded=0;whiteSpace=wrap;html=1;" parent="1" vertex="1">
          <mxGeometry x="582.5" y="870" width="45" height="20" as="geometry" />
        </mxCell>
        <mxCell id="KoBdJGmI44apPWLvyjWZ-119" value="fin" style="ellipse;whiteSpace=wrap;html=1;" parent="1" vertex="1">
          <mxGeometry x="463.75" y="920" width="42.5" height="20" as="geometry" />
        </mxCell>
        <mxCell id="KoBdJGmI44apPWLvyjWZ-120" value="" style="endArrow=none;html=1;rounded=0;" parent="1" edge="1">
          <mxGeometry width="50" height="50" relative="1" as="geometry">
            <mxPoint x="350" y="930" as="sourcePoint" />
            <mxPoint x="350" y="865" as="targetPoint" />
          </mxGeometry>
        </mxCell>
        <mxCell id="KoBdJGmI44apPWLvyjWZ-121" value="" style="endArrow=classic;html=1;rounded=0;entryX=0;entryY=0.5;entryDx=0;entryDy=0;" parent="1" target="KoBdJGmI44apPWLvyjWZ-119" edge="1">
          <mxGeometry width="50" height="50" relative="1" as="geometry">
            <mxPoint x="350" y="930" as="sourcePoint" />
            <mxPoint x="457.4999999999992" y="930" as="targetPoint" />
          </mxGeometry>
        </mxCell>
        <mxCell id="KoBdJGmI44apPWLvyjWZ-122" value="" style="endArrow=classic;html=1;rounded=0;exitX=0.46;exitY=0.926;exitDx=0;exitDy=0;exitPerimeter=0;entryX=0.438;entryY=-0.074;entryDx=0;entryDy=0;entryPerimeter=0;" parent="1" source="KoBdJGmI44apPWLvyjWZ-111" target="KoBdJGmI44apPWLvyjWZ-119" edge="1">
          <mxGeometry width="50" height="50" relative="1" as="geometry">
            <mxPoint x="450" y="950" as="sourcePoint" />
            <mxPoint x="500" y="900" as="targetPoint" />
          </mxGeometry>
        </mxCell>
        <mxCell id="KoBdJGmI44apPWLvyjWZ-123" value="" style="endArrow=none;html=1;rounded=0;entryX=0.5;entryY=1;entryDx=0;entryDy=0;" parent="1" target="KoBdJGmI44apPWLvyjWZ-118" edge="1">
          <mxGeometry width="50" height="50" relative="1" as="geometry">
            <mxPoint x="605" y="930" as="sourcePoint" />
            <mxPoint x="590" y="920" as="targetPoint" />
          </mxGeometry>
        </mxCell>
        <mxCell id="KoBdJGmI44apPWLvyjWZ-124" value="" style="endArrow=classic;html=1;rounded=0;entryX=1;entryY=0.5;entryDx=0;entryDy=0;" parent="1" target="KoBdJGmI44apPWLvyjWZ-119" edge="1">
          <mxGeometry width="50" height="50" relative="1" as="geometry">
            <mxPoint x="600" y="930" as="sourcePoint" />
            <mxPoint x="590" y="920" as="targetPoint" />
          </mxGeometry>
        </mxCell>
        <mxCell id="KoBdJGmI44apPWLvyjWZ-125" value="" style="endArrow=none;html=1;rounded=0;" parent="1" edge="1">
          <mxGeometry width="50" height="50" relative="1" as="geometry">
            <mxPoint x="590" y="929.94" as="sourcePoint" />
            <mxPoint x="610" y="930" as="targetPoint" />
          </mxGeometry>
        </mxCell>
        <mxCell id="KoBdJGmI44apPWLvyjWZ-126" value="&lt;font style=&quot;font-size: 8px;&quot;&gt;resumen(float porcentaje, int grandes)&lt;/font&gt;" style="text;html=1;align=center;verticalAlign=middle;resizable=0;points=[];autosize=1;strokeColor=none;fillColor=none;" parent="1" vertex="1">
          <mxGeometry x="665" y="578" width="160" height="30" as="geometry" />
        </mxCell>
        <mxCell id="KoBdJGmI44apPWLvyjWZ-127" value="inicio" style="ellipse;whiteSpace=wrap;html=1;" parent="1" vertex="1">
          <mxGeometry x="722.5" y="604" width="45" height="32" as="geometry" />
        </mxCell>
        <mxCell id="KoBdJGmI44apPWLvyjWZ-128" value="" style="endArrow=classic;html=1;rounded=0;exitX=0.5;exitY=1;exitDx=0;exitDy=0;" parent="1" source="KoBdJGmI44apPWLvyjWZ-127" edge="1">
          <mxGeometry width="50" height="50" relative="1" as="geometry">
            <mxPoint x="710" y="717" as="sourcePoint" />
            <mxPoint x="745" y="670" as="targetPoint" />
          </mxGeometry>
        </mxCell>
        <mxCell id="KoBdJGmI44apPWLvyjWZ-129" value="&lt;span style=&quot;font-size: 6px;&quot;&gt;imprimir grandes&lt;/span&gt;" style="shape=document;whiteSpace=wrap;html=1;boundedLbl=1;" parent="1" vertex="1">
          <mxGeometry x="711.25" y="673" width="67.5" height="38" as="geometry" />
        </mxCell>
        <mxCell id="KoBdJGmI44apPWLvyjWZ-130" value="" style="endArrow=classic;html=1;rounded=0;exitX=0.5;exitY=0.836;exitDx=0;exitDy=0;exitPerimeter=0;" parent="1" source="KoBdJGmI44apPWLvyjWZ-129" edge="1">
          <mxGeometry width="50" height="50" relative="1" as="geometry">
            <mxPoint x="738.75" y="787" as="sourcePoint" />
            <mxPoint x="745" y="740" as="targetPoint" />
          </mxGeometry>
        </mxCell>
        <mxCell id="KoBdJGmI44apPWLvyjWZ-131" value="&lt;font style=&quot;font-size: 6px;&quot;&gt;imprimir porcentaje&lt;/font&gt;" style="shape=document;whiteSpace=wrap;html=1;boundedLbl=1;" parent="1" vertex="1">
          <mxGeometry x="711.25" y="742" width="67.5" height="38" as="geometry" />
        </mxCell>
        <mxCell id="KoBdJGmI44apPWLvyjWZ-132" value="" style="endArrow=classic;html=1;rounded=0;exitX=0.523;exitY=0.868;exitDx=0;exitDy=0;exitPerimeter=0;" parent="1" source="KoBdJGmI44apPWLvyjWZ-131" target="KoBdJGmI44apPWLvyjWZ-133" edge="1">
          <mxGeometry width="50" height="50" relative="1" as="geometry">
            <mxPoint x="720" y="820" as="sourcePoint" />
            <mxPoint x="747" y="800" as="targetPoint" />
          </mxGeometry>
        </mxCell>
        <mxCell id="KoBdJGmI44apPWLvyjWZ-133" value="fin" style="ellipse;whiteSpace=wrap;html=1;" parent="1" vertex="1">
          <mxGeometry x="724.5" y="810" width="43" height="30" as="geometry" />
        </mxCell>
        <mxCell id="KoBdJGmI44apPWLvyjWZ-134" value="calcularArea(float a, float b, float angulo)" style="text;html=1;align=center;verticalAlign=middle;resizable=0;points=[];autosize=1;strokeColor=none;fillColor=none;" parent="1" vertex="1">
          <mxGeometry y="1192" width="240" height="30" as="geometry" />
        </mxCell>
        <mxCell id="KoBdJGmI44apPWLvyjWZ-135" value="inicio" style="ellipse;whiteSpace=wrap;html=1;" parent="1" vertex="1">
          <mxGeometry x="82.5" y="1222" width="60" height="40" as="geometry" />
        </mxCell>
        <mxCell id="KoBdJGmI44apPWLvyjWZ-136" value="&lt;font style=&quot;font-size: 8px;&quot;&gt;area = 0&lt;/font&gt;" style="rounded=0;whiteSpace=wrap;html=1;" parent="1" vertex="1">
          <mxGeometry x="87.5" y="1294" width="50" height="20" as="geometry" />
        </mxCell>
        <mxCell id="KoBdJGmI44apPWLvyjWZ-139" value="" style="endArrow=classic;html=1;rounded=0;exitX=0.5;exitY=1;exitDx=0;exitDy=0;" parent="1" source="KoBdJGmI44apPWLvyjWZ-135" edge="1">
          <mxGeometry width="50" height="50" relative="1" as="geometry">
            <mxPoint x="105" y="1274" as="sourcePoint" />
            <mxPoint x="112" y="1294" as="targetPoint" />
          </mxGeometry>
        </mxCell>
        <mxCell id="KoBdJGmI44apPWLvyjWZ-140" value="" style="endArrow=classic;html=1;rounded=0;exitX=0.5;exitY=1;exitDx=0;exitDy=0;" parent="1" source="KoBdJGmI44apPWLvyjWZ-136" edge="1">
          <mxGeometry width="50" height="50" relative="1" as="geometry">
            <mxPoint x="75" y="1294" as="sourcePoint" />
            <mxPoint x="113" y="1344" as="targetPoint" />
          </mxGeometry>
        </mxCell>
        <mxCell id="KoBdJGmI44apPWLvyjWZ-141" value="&lt;font style=&quot;font-size: 8px;&quot;&gt;radianes = angulo * PI /180&lt;/font&gt;" style="rounded=0;whiteSpace=wrap;html=1;" parent="1" vertex="1">
          <mxGeometry x="57.5" y="1343" width="108.75" height="21" as="geometry" />
        </mxCell>
        <mxCell id="KoBdJGmI44apPWLvyjWZ-142" value="&lt;font style=&quot;font-size: 8px;&quot;&gt;area = 0.5 * (a*b) * sin(radianes)&lt;/font&gt;" style="rounded=0;whiteSpace=wrap;html=1;" parent="1" vertex="1">
          <mxGeometry x="49.38" y="1396" width="126.25" height="20" as="geometry" />
        </mxCell>
        <mxCell id="KoBdJGmI44apPWLvyjWZ-143" value="" style="endArrow=classic;html=1;rounded=0;exitX=0.527;exitY=1.006;exitDx=0;exitDy=0;exitPerimeter=0;" parent="1" source="KoBdJGmI44apPWLvyjWZ-141" edge="1">
          <mxGeometry width="50" height="50" relative="1" as="geometry">
            <mxPoint x="113" y="1364" as="sourcePoint" />
            <mxPoint x="115" y="1394" as="targetPoint" />
          </mxGeometry>
        </mxCell>
        <mxCell id="KoBdJGmI44apPWLvyjWZ-146" value="&lt;span style=&quot;font-size: 8px;&quot;&gt;retornar area&lt;/span&gt;" style="rounded=0;whiteSpace=wrap;html=1;" parent="1" vertex="1">
          <mxGeometry x="87.51" y="1444" width="50" height="20" as="geometry" />
        </mxCell>
        <mxCell id="KoBdJGmI44apPWLvyjWZ-147" value="" style="endArrow=classic;html=1;rounded=0;exitX=0.5;exitY=1;exitDx=0;exitDy=0;" parent="1" edge="1">
          <mxGeometry width="50" height="50" relative="1" as="geometry">
            <mxPoint x="113.01" y="1416" as="sourcePoint" />
            <mxPoint x="113" y="1444" as="targetPoint" />
          </mxGeometry>
        </mxCell>
        <mxCell id="KoBdJGmI44apPWLvyjWZ-148" value="" style="endArrow=classic;html=1;rounded=0;exitX=0.5;exitY=1;exitDx=0;exitDy=0;" parent="1" source="KoBdJGmI44apPWLvyjWZ-146" edge="1">
          <mxGeometry width="50" height="50" relative="1" as="geometry">
            <mxPoint x="85" y="1484" as="sourcePoint" />
            <mxPoint x="113" y="1484" as="targetPoint" />
          </mxGeometry>
        </mxCell>
        <mxCell id="KoBdJGmI44apPWLvyjWZ-149" value="fin" style="ellipse;whiteSpace=wrap;html=1;" parent="1" vertex="1">
          <mxGeometry x="96.88" y="1484" width="31.25" height="20" as="geometry" />
        </mxCell>
        <mxCell id="KoBdJGmI44apPWLvyjWZ-150" value="calcularPorcentaje(int grandes, int total)" style="text;html=1;align=center;verticalAlign=middle;resizable=0;points=[];autosize=1;strokeColor=none;fillColor=none;" parent="1" vertex="1">
          <mxGeometry x="255" y="1192" width="230" height="30" as="geometry" />
        </mxCell>
        <mxCell id="KoBdJGmI44apPWLvyjWZ-151" value="inicio" style="ellipse;whiteSpace=wrap;html=1;" parent="1" vertex="1">
          <mxGeometry x="340" y="1222" width="60" height="40" as="geometry" />
        </mxCell>
        <mxCell id="KoBdJGmI44apPWLvyjWZ-154" value="" style="endArrow=classic;html=1;rounded=0;exitX=0.5;exitY=1;exitDx=0;exitDy=0;" parent="1" edge="1">
          <mxGeometry width="50" height="50" relative="1" as="geometry">
            <mxPoint x="369.9999999999999" y="1262" as="sourcePoint" />
            <mxPoint x="370.5" y="1292" as="targetPoint" />
          </mxGeometry>
        </mxCell>
        <mxCell id="KoBdJGmI44apPWLvyjWZ-155" value="&lt;font style=&quot;font-size: 8px;&quot;&gt;porcentaje = (grandes * 100) / total * 1.0&lt;/font&gt;" style="rounded=0;whiteSpace=wrap;html=1;" parent="1" vertex="1">
          <mxGeometry x="293.75" y="1293" width="150" height="21" as="geometry" />
        </mxCell>
        <mxCell id="KoBdJGmI44apPWLvyjWZ-157" value="" style="endArrow=classic;html=1;rounded=0;exitX=0.527;exitY=1.006;exitDx=0;exitDy=0;exitPerimeter=0;" parent="1" source="KoBdJGmI44apPWLvyjWZ-155" edge="1">
          <mxGeometry width="50" height="50" relative="1" as="geometry">
            <mxPoint x="370.5" y="1312" as="sourcePoint" />
            <mxPoint x="372.5" y="1342" as="targetPoint" />
          </mxGeometry>
        </mxCell>
        <mxCell id="KoBdJGmI44apPWLvyjWZ-158" value="&lt;span style=&quot;font-size: 8px;&quot;&gt;retornar porcentaje&lt;/span&gt;" style="rounded=0;whiteSpace=wrap;html=1;" parent="1" vertex="1">
          <mxGeometry x="337.5" y="1343" width="75" height="20" as="geometry" />
        </mxCell>
        <mxCell id="KoBdJGmI44apPWLvyjWZ-160" value="" style="endArrow=classic;html=1;rounded=0;exitX=0.5;exitY=1;exitDx=0;exitDy=0;" parent="1" source="KoBdJGmI44apPWLvyjWZ-158" edge="1">
          <mxGeometry width="50" height="50" relative="1" as="geometry">
            <mxPoint x="347.49" y="1383" as="sourcePoint" />
            <mxPoint x="375.49" y="1383" as="targetPoint" />
          </mxGeometry>
        </mxCell>
        <mxCell id="KoBdJGmI44apPWLvyjWZ-161" value="fin" style="ellipse;whiteSpace=wrap;html=1;" parent="1" vertex="1">
          <mxGeometry x="359.37" y="1383" width="31.25" height="20" as="geometry" />
        </mxCell>
        <mxCell id="KoBdJGmI44apPWLvyjWZ-162" value="main" style="text;html=1;align=center;verticalAlign=middle;resizable=0;points=[];autosize=1;strokeColor=none;fillColor=none;" parent="1" vertex="1">
          <mxGeometry x="635" y="1028" width="50" height="30" as="geometry" />
        </mxCell>
        <mxCell id="KoBdJGmI44apPWLvyjWZ-163" value="inicio" style="ellipse;whiteSpace=wrap;html=1;" parent="1" vertex="1">
          <mxGeometry x="630" y="1058" width="60" height="40" as="geometry" />
        </mxCell>
        <mxCell id="KoBdJGmI44apPWLvyjWZ-164" value="&lt;font style=&quot;font-size: 8px;&quot;&gt;cantTriangulos = 0&lt;/font&gt;" style="rounded=0;whiteSpace=wrap;html=1;" parent="1" vertex="1">
          <mxGeometry x="617.5" y="1130" width="85" height="20" as="geometry" />
        </mxCell>
        <mxCell id="KoBdJGmI44apPWLvyjWZ-165" value="" style="endArrow=classic;html=1;rounded=0;exitX=0.5;exitY=1;exitDx=0;exitDy=0;" parent="1" source="KoBdJGmI44apPWLvyjWZ-163" edge="1">
          <mxGeometry width="50" height="50" relative="1" as="geometry">
            <mxPoint x="652.5" y="1110" as="sourcePoint" />
            <mxPoint x="659.5" y="1130" as="targetPoint" />
          </mxGeometry>
        </mxCell>
        <mxCell id="KoBdJGmI44apPWLvyjWZ-166" value="&lt;font style=&quot;font-size: 8px;&quot;&gt;iteraciones = 0&lt;/font&gt;" style="rounded=0;whiteSpace=wrap;html=1;" parent="1" vertex="1">
          <mxGeometry x="617.5" y="1182" width="85" height="20" as="geometry" />
        </mxCell>
        <mxCell id="KoBdJGmI44apPWLvyjWZ-167" value="" style="endArrow=classic;html=1;rounded=0;exitX=0.5;exitY=1;exitDx=0;exitDy=0;" parent="1" edge="1">
          <mxGeometry width="50" height="50" relative="1" as="geometry">
            <mxPoint x="660" y="1150" as="sourcePoint" />
            <mxPoint x="659.5" y="1182" as="targetPoint" />
          </mxGeometry>
        </mxCell>
        <mxCell id="KoBdJGmI44apPWLvyjWZ-168" value="&lt;font style=&quot;font-size: 8px;&quot;&gt;ladoA = 0&lt;/font&gt;" style="rounded=0;whiteSpace=wrap;html=1;" parent="1" vertex="1">
          <mxGeometry x="618.75" y="1228" width="85" height="20" as="geometry" />
        </mxCell>
        <mxCell id="KoBdJGmI44apPWLvyjWZ-169" value="&lt;font style=&quot;font-size: 8px;&quot;&gt;ladoB = 0&lt;/font&gt;" style="rounded=0;whiteSpace=wrap;html=1;" parent="1" vertex="1">
          <mxGeometry x="618.75" y="1280" width="85" height="20" as="geometry" />
        </mxCell>
        <mxCell id="KoBdJGmI44apPWLvyjWZ-172" value="" style="endArrow=classic;html=1;rounded=0;exitX=0.5;exitY=1;exitDx=0;exitDy=0;" parent="1" edge="1">
          <mxGeometry width="50" height="50" relative="1" as="geometry">
            <mxPoint x="661.25" y="1248" as="sourcePoint" />
            <mxPoint x="660.75" y="1280" as="targetPoint" />
          </mxGeometry>
        </mxCell>
        <mxCell id="KoBdJGmI44apPWLvyjWZ-173" value="" style="endArrow=classic;html=1;rounded=0;exitX=0.5;exitY=1;exitDx=0;exitDy=0;entryX=0.5;entryY=0;entryDx=0;entryDy=0;" parent="1" target="KoBdJGmI44apPWLvyjWZ-168" edge="1">
          <mxGeometry width="50" height="50" relative="1" as="geometry">
            <mxPoint x="660.25" y="1202" as="sourcePoint" />
            <mxPoint x="660" y="1220" as="targetPoint" />
          </mxGeometry>
        </mxCell>
        <mxCell id="KoBdJGmI44apPWLvyjWZ-174" value="&lt;font style=&quot;font-size: 8px;&quot;&gt;anguloC = 0&lt;/font&gt;" style="rounded=0;whiteSpace=wrap;html=1;" parent="1" vertex="1">
          <mxGeometry x="618.75" y="1332" width="85" height="20" as="geometry" />
        </mxCell>
        <mxCell id="KoBdJGmI44apPWLvyjWZ-175" value="" style="endArrow=classic;html=1;rounded=0;exitX=0.5;exitY=1;exitDx=0;exitDy=0;" parent="1" edge="1">
          <mxGeometry width="50" height="50" relative="1" as="geometry">
            <mxPoint x="661.25" y="1300" as="sourcePoint" />
            <mxPoint x="660.75" y="1332" as="targetPoint" />
          </mxGeometry>
        </mxCell>
        <mxCell id="KoBdJGmI44apPWLvyjWZ-176" value="&lt;font style=&quot;font-size: 8px;&quot;&gt;area = 0&lt;/font&gt;" style="rounded=0;whiteSpace=wrap;html=1;" parent="1" vertex="1">
          <mxGeometry x="618.75" y="1384" width="85" height="20" as="geometry" />
        </mxCell>
        <mxCell id="KoBdJGmI44apPWLvyjWZ-177" value="" style="endArrow=classic;html=1;rounded=0;exitX=0.5;exitY=1;exitDx=0;exitDy=0;" parent="1" edge="1">
          <mxGeometry width="50" height="50" relative="1" as="geometry">
            <mxPoint x="661.25" y="1352" as="sourcePoint" />
            <mxPoint x="660.75" y="1384" as="targetPoint" />
          </mxGeometry>
        </mxCell>
        <mxCell id="KoBdJGmI44apPWLvyjWZ-178" value="&lt;font style=&quot;font-size: 8px;&quot;&gt;grandes = 0&lt;/font&gt;" style="rounded=0;whiteSpace=wrap;html=1;" parent="1" vertex="1">
          <mxGeometry x="620" y="1430" width="85" height="20" as="geometry" />
        </mxCell>
        <mxCell id="KoBdJGmI44apPWLvyjWZ-179" value="&lt;font style=&quot;font-size: 8px;&quot;&gt;porcentaje = 0&lt;/font&gt;" style="rounded=0;whiteSpace=wrap;html=1;" parent="1" vertex="1">
          <mxGeometry x="620" y="1482" width="85" height="20" as="geometry" />
        </mxCell>
        <mxCell id="KoBdJGmI44apPWLvyjWZ-180" value="" style="endArrow=classic;html=1;rounded=0;exitX=0.5;exitY=1;exitDx=0;exitDy=0;" parent="1" edge="1">
          <mxGeometry width="50" height="50" relative="1" as="geometry">
            <mxPoint x="662.5" y="1450" as="sourcePoint" />
            <mxPoint x="662" y="1482" as="targetPoint" />
          </mxGeometry>
        </mxCell>
        <mxCell id="KoBdJGmI44apPWLvyjWZ-181" value="" style="endArrow=classic;html=1;rounded=0;exitX=0.5;exitY=1;exitDx=0;exitDy=0;entryX=0.5;entryY=0;entryDx=0;entryDy=0;" parent="1" target="KoBdJGmI44apPWLvyjWZ-178" edge="1">
          <mxGeometry width="50" height="50" relative="1" as="geometry">
            <mxPoint x="661.5" y="1404" as="sourcePoint" />
            <mxPoint x="661.25" y="1422" as="targetPoint" />
          </mxGeometry>
        </mxCell>
        <mxCell id="KoBdJGmI44apPWLvyjWZ-182" value="&lt;font style=&quot;font-size: 8px;&quot;&gt;cantTriangulos = pedirCantTriangulos()&lt;/font&gt;" style="rounded=0;whiteSpace=wrap;html=1;" parent="1" vertex="1">
          <mxGeometry x="587.5" y="1534" width="150" height="20" as="geometry" />
        </mxCell>
        <mxCell id="KoBdJGmI44apPWLvyjWZ-183" value="" style="endArrow=classic;html=1;rounded=0;exitX=0.5;exitY=1;exitDx=0;exitDy=0;" parent="1" edge="1">
          <mxGeometry width="50" height="50" relative="1" as="geometry">
            <mxPoint x="662.5" y="1502" as="sourcePoint" />
            <mxPoint x="662" y="1534" as="targetPoint" />
          </mxGeometry>
        </mxCell>
        <mxCell id="KoBdJGmI44apPWLvyjWZ-184" value="&lt;font style=&quot;font-size: 8px;&quot;&gt;iteraciones = cantTriangulos&lt;/font&gt;" style="rounded=0;whiteSpace=wrap;html=1;" parent="1" vertex="1">
          <mxGeometry x="609.38" y="1580" width="106.25" height="20" as="geometry" />
        </mxCell>
        <mxCell id="KoBdJGmI44apPWLvyjWZ-185" value="&lt;font style=&quot;font-size: 8px;&quot;&gt;porcentaje = 0&lt;/font&gt;" style="rounded=0;whiteSpace=wrap;html=1;" parent="1" vertex="1">
          <mxGeometry x="621.25" y="1632" width="85" height="20" as="geometry" />
        </mxCell>
        <mxCell id="KoBdJGmI44apPWLvyjWZ-186" value="" style="endArrow=classic;html=1;rounded=0;exitX=0.5;exitY=1;exitDx=0;exitDy=0;" parent="1" edge="1">
          <mxGeometry width="50" height="50" relative="1" as="geometry">
            <mxPoint x="663.75" y="1600" as="sourcePoint" />
            <mxPoint x="663.25" y="1632" as="targetPoint" />
          </mxGeometry>
        </mxCell>
        <mxCell id="KoBdJGmI44apPWLvyjWZ-187" value="" style="endArrow=classic;html=1;rounded=0;exitX=0.5;exitY=1;exitDx=0;exitDy=0;entryX=0.5;entryY=0;entryDx=0;entryDy=0;" parent="1" target="KoBdJGmI44apPWLvyjWZ-184" edge="1">
          <mxGeometry width="50" height="50" relative="1" as="geometry">
            <mxPoint x="662.75" y="1554" as="sourcePoint" />
            <mxPoint x="662.5" y="1572" as="targetPoint" />
          </mxGeometry>
        </mxCell>
        <mxCell id="KoBdJGmI44apPWLvyjWZ-188" value="&lt;font style=&quot;font-size: 6px;&quot;&gt;iteraciones &amp;gt; 0&lt;/font&gt;" style="rhombus;whiteSpace=wrap;html=1;" parent="1" vertex="1">
          <mxGeometry x="635" y="1680" width="56.25" height="50" as="geometry" />
        </mxCell>
        <mxCell id="KoBdJGmI44apPWLvyjWZ-189" value="" style="endArrow=classic;html=1;rounded=0;entryX=0.5;entryY=0;entryDx=0;entryDy=0;exitX=0.5;exitY=1;exitDx=0;exitDy=0;" parent="1" source="KoBdJGmI44apPWLvyjWZ-185" target="KoBdJGmI44apPWLvyjWZ-188" edge="1">
          <mxGeometry width="50" height="50" relative="1" as="geometry">
            <mxPoint x="600" y="1700" as="sourcePoint" />
            <mxPoint x="650" y="1650" as="targetPoint" />
          </mxGeometry>
        </mxCell>
        <mxCell id="KoBdJGmI44apPWLvyjWZ-190" value="" style="endArrow=classic;html=1;rounded=0;" parent="1" edge="1">
          <mxGeometry width="50" height="50" relative="1" as="geometry">
            <mxPoint x="691.25" y="1704.76" as="sourcePoint" />
            <mxPoint x="740" y="1704.76" as="targetPoint" />
          </mxGeometry>
        </mxCell>
        <mxCell id="KoBdJGmI44apPWLvyjWZ-191" value="No" style="edgeLabel;html=1;align=center;verticalAlign=middle;resizable=0;points=[];" parent="KoBdJGmI44apPWLvyjWZ-190" vertex="1" connectable="0">
          <mxGeometry x="-0.292" y="2" relative="1" as="geometry">
            <mxPoint as="offset" />
          </mxGeometry>
        </mxCell>
        <mxCell id="KoBdJGmI44apPWLvyjWZ-192" value="" style="endArrow=classic;html=1;rounded=0;exitX=0.5;exitY=1;exitDx=0;exitDy=0;" parent="1" source="KoBdJGmI44apPWLvyjWZ-188" edge="1">
          <mxGeometry width="50" height="50" relative="1" as="geometry">
            <mxPoint x="620" y="1760" as="sourcePoint" />
            <mxPoint x="663" y="1770" as="targetPoint" />
          </mxGeometry>
        </mxCell>
        <mxCell id="KoBdJGmI44apPWLvyjWZ-193" value="Si" style="edgeLabel;html=1;align=center;verticalAlign=middle;resizable=0;points=[];" parent="KoBdJGmI44apPWLvyjWZ-192" vertex="1" connectable="0">
          <mxGeometry x="-0.0625" y="-1" relative="1" as="geometry">
            <mxPoint as="offset" />
          </mxGeometry>
        </mxCell>
        <mxCell id="KoBdJGmI44apPWLvyjWZ-194" value="&lt;font style=&quot;font-size: 8px;&quot;&gt;ladoA = pedirLado(1)&lt;/font&gt;" style="rounded=0;whiteSpace=wrap;html=1;" parent="1" vertex="1">
          <mxGeometry x="618.75" y="1770" width="85" height="20" as="geometry" />
        </mxCell>
        <mxCell id="KoBdJGmI44apPWLvyjWZ-196" value="&lt;span style=&quot;font-size: 8px;&quot;&gt;ladoB = pedirLado(2)&lt;/span&gt;" style="rounded=0;whiteSpace=wrap;html=1;" parent="1" vertex="1">
          <mxGeometry x="618.75" y="1810" width="85" height="20" as="geometry" />
        </mxCell>
        <mxCell id="KoBdJGmI44apPWLvyjWZ-197" value="" style="endArrow=classic;html=1;rounded=0;exitX=0.5;exitY=1;exitDx=0;exitDy=0;" parent="1" edge="1">
          <mxGeometry width="50" height="50" relative="1" as="geometry">
            <mxPoint x="661.25" y="1790" as="sourcePoint" />
            <mxPoint x="660" y="1810" as="targetPoint" />
          </mxGeometry>
        </mxCell>
        <mxCell id="KoBdJGmI44apPWLvyjWZ-198" value="&lt;font style=&quot;font-size: 8px;&quot;&gt;anguloC = pedirAngulo()&lt;/font&gt;" style="rounded=0;whiteSpace=wrap;html=1;" parent="1" vertex="1">
          <mxGeometry x="615.63" y="1850" width="91.25" height="20" as="geometry" />
        </mxCell>
        <mxCell id="KoBdJGmI44apPWLvyjWZ-199" value="" style="endArrow=classic;html=1;rounded=0;exitX=0.5;exitY=1;exitDx=0;exitDy=0;" parent="1" edge="1">
          <mxGeometry width="50" height="50" relative="1" as="geometry">
            <mxPoint x="660.63" y="1830" as="sourcePoint" />
            <mxPoint x="661" y="1850" as="targetPoint" />
          </mxGeometry>
        </mxCell>
        <mxCell id="KoBdJGmI44apPWLvyjWZ-200" value="&lt;font style=&quot;font-size: 8px;&quot;&gt;area = calcularArea(ladoA, ladoB, anguloC)&lt;/font&gt;" style="rounded=0;whiteSpace=wrap;html=1;" parent="1" vertex="1">
          <mxGeometry x="620" y="1896" width="85" height="50" as="geometry" />
        </mxCell>
        <mxCell id="KoBdJGmI44apPWLvyjWZ-202" value="" style="endArrow=classic;html=1;rounded=0;exitX=0.5;exitY=1;exitDx=0;exitDy=0;" parent="1" edge="1">
          <mxGeometry width="50" height="50" relative="1" as="geometry">
            <mxPoint x="662.75" y="1946" as="sourcePoint" />
            <mxPoint x="662" y="1966" as="targetPoint" />
          </mxGeometry>
        </mxCell>
        <mxCell id="KoBdJGmI44apPWLvyjWZ-203" value="" style="endArrow=classic;html=1;rounded=0;exitX=0.5;exitY=1;exitDx=0;exitDy=0;entryX=0.5;entryY=0;entryDx=0;entryDy=0;" parent="1" target="KoBdJGmI44apPWLvyjWZ-200" edge="1">
          <mxGeometry width="50" height="50" relative="1" as="geometry">
            <mxPoint x="661.5" y="1870" as="sourcePoint" />
            <mxPoint x="661.25" y="1888" as="targetPoint" />
          </mxGeometry>
        </mxCell>
        <mxCell id="KoBdJGmI44apPWLvyjWZ-204" value="&lt;font style=&quot;font-size: 6px;&quot;&gt;clasificar(area) == true&lt;/font&gt;" style="rhombus;whiteSpace=wrap;html=1;" parent="1" vertex="1">
          <mxGeometry x="622.5" y="1966" width="80" height="70" as="geometry" />
        </mxCell>
        <mxCell id="KoBdJGmI44apPWLvyjWZ-205" value="" style="endArrow=classic;html=1;rounded=0;" parent="1" edge="1">
          <mxGeometry width="50" height="50" relative="1" as="geometry">
            <mxPoint x="661.25" y="2036" as="sourcePoint" />
            <mxPoint x="661" y="2066" as="targetPoint" />
          </mxGeometry>
        </mxCell>
        <mxCell id="KoBdJGmI44apPWLvyjWZ-206" value="Si" style="edgeLabel;html=1;align=center;verticalAlign=middle;resizable=0;points=[];" parent="KoBdJGmI44apPWLvyjWZ-205" vertex="1" connectable="0">
          <mxGeometry x="-0.315" relative="1" as="geometry">
            <mxPoint as="offset" />
          </mxGeometry>
        </mxCell>
        <mxCell id="KoBdJGmI44apPWLvyjWZ-208" value="" style="endArrow=none;html=1;rounded=0;entryX=0;entryY=0.5;entryDx=0;entryDy=0;" parent="1" target="KoBdJGmI44apPWLvyjWZ-204" edge="1">
          <mxGeometry width="50" height="50" relative="1" as="geometry">
            <mxPoint x="560" y="2001" as="sourcePoint" />
            <mxPoint x="622.5" y="1996" as="targetPoint" />
            <Array as="points">
              <mxPoint x="600" y="2000" />
            </Array>
          </mxGeometry>
        </mxCell>
        <mxCell id="KoBdJGmI44apPWLvyjWZ-209" value="No" style="edgeLabel;html=1;align=center;verticalAlign=middle;resizable=0;points=[];" parent="KoBdJGmI44apPWLvyjWZ-208" vertex="1" connectable="0">
          <mxGeometry x="0.0056" y="-1" relative="1" as="geometry">
            <mxPoint as="offset" />
          </mxGeometry>
        </mxCell>
        <mxCell id="KoBdJGmI44apPWLvyjWZ-210" value="&lt;font style=&quot;font-size: 8px;&quot;&gt;grandes++&lt;/font&gt;" style="rounded=0;whiteSpace=wrap;html=1;" parent="1" vertex="1">
          <mxGeometry x="634.6899999999999" y="2066" width="50.62" height="20" as="geometry" />
        </mxCell>
        <mxCell id="KoBdJGmI44apPWLvyjWZ-211" value="" style="endArrow=none;html=1;rounded=0;" parent="1" edge="1">
          <mxGeometry width="50" height="50" relative="1" as="geometry">
            <mxPoint x="560" y="2116" as="sourcePoint" />
            <mxPoint x="558.75" y="1996" as="targetPoint" />
          </mxGeometry>
        </mxCell>
        <mxCell id="KoBdJGmI44apPWLvyjWZ-212" value="" style="endArrow=classic;html=1;rounded=0;" parent="1" edge="1">
          <mxGeometry width="50" height="50" relative="1" as="geometry">
            <mxPoint x="560" y="2116" as="sourcePoint" />
            <mxPoint x="630" y="2116" as="targetPoint" />
          </mxGeometry>
        </mxCell>
        <mxCell id="KoBdJGmI44apPWLvyjWZ-213" value="" style="endArrow=classic;html=1;rounded=0;exitX=0.5;exitY=1;exitDx=0;exitDy=0;" parent="1" source="KoBdJGmI44apPWLvyjWZ-210" edge="1">
          <mxGeometry width="50" height="50" relative="1" as="geometry">
            <mxPoint x="580" y="2106" as="sourcePoint" />
            <mxPoint x="660" y="2106" as="targetPoint" />
          </mxGeometry>
        </mxCell>
        <mxCell id="KoBdJGmI44apPWLvyjWZ-214" value="&lt;font style=&quot;font-size: 9px;&quot;&gt;iteraciones--&lt;/font&gt;" style="rounded=0;whiteSpace=wrap;html=1;" parent="1" vertex="1">
          <mxGeometry x="630" y="2106" width="60" height="20" as="geometry" />
        </mxCell>
        <mxCell id="KoBdJGmI44apPWLvyjWZ-215" value="" style="endArrow=classic;html=1;rounded=0;exitX=0.5;exitY=1;exitDx=0;exitDy=0;" parent="1" source="KoBdJGmI44apPWLvyjWZ-214" edge="1">
          <mxGeometry width="50" height="50" relative="1" as="geometry">
            <mxPoint x="620" y="2196" as="sourcePoint" />
            <mxPoint x="660" y="2146" as="targetPoint" />
          </mxGeometry>
        </mxCell>
        <mxCell id="KoBdJGmI44apPWLvyjWZ-216" value="&lt;font style=&quot;font-size: 8px;&quot;&gt;porcentaje = calcularPorcentaje(grandes, cantTriangulos)&lt;/font&gt;" style="rounded=0;whiteSpace=wrap;html=1;" parent="1" vertex="1">
          <mxGeometry x="605.31" y="2146" width="109.38" height="50" as="geometry" />
        </mxCell>
        <mxCell id="KoBdJGmI44apPWLvyjWZ-217" value="" style="endArrow=classic;html=1;rounded=0;" parent="1" edge="1">
          <mxGeometry width="50" height="50" relative="1" as="geometry">
            <mxPoint x="661.22" y="2196" as="sourcePoint" />
            <mxPoint x="660.96" y="2216" as="targetPoint" />
          </mxGeometry>
        </mxCell>
        <mxCell id="KoBdJGmI44apPWLvyjWZ-218" value="&lt;font style=&quot;font-size: 8px;&quot;&gt;reumen(porcentaje, grandes)&lt;/font&gt;" style="rounded=0;whiteSpace=wrap;html=1;" parent="1" vertex="1">
          <mxGeometry x="617.5" y="2216" width="80" height="30" as="geometry" />
        </mxCell>
        <mxCell id="KoBdJGmI44apPWLvyjWZ-220" value="" style="endArrow=classic;html=1;rounded=0;exitX=0.5;exitY=1;exitDx=0;exitDy=0;" parent="1" edge="1">
          <mxGeometry width="50" height="50" relative="1" as="geometry">
            <mxPoint x="659.75" y="2246" as="sourcePoint" />
            <mxPoint x="660.25" y="2266" as="targetPoint" />
          </mxGeometry>
        </mxCell>
        <mxCell id="KoBdJGmI44apPWLvyjWZ-221" value="&lt;font style=&quot;font-size: 6px;&quot;&gt;retornar 0&lt;/font&gt;" style="rounded=0;whiteSpace=wrap;html=1;" parent="1" vertex="1">
          <mxGeometry x="641.25" y="2266" width="35.31" height="20" as="geometry" />
        </mxCell>
        <mxCell id="KoBdJGmI44apPWLvyjWZ-222" value="" style="endArrow=classic;html=1;rounded=0;exitX=0.5;exitY=1;exitDx=0;exitDy=0;entryX=0.494;entryY=-0.053;entryDx=0;entryDy=0;entryPerimeter=0;" parent="1" source="KoBdJGmI44apPWLvyjWZ-221" target="KoBdJGmI44apPWLvyjWZ-224" edge="1">
          <mxGeometry width="50" height="50" relative="1" as="geometry">
            <mxPoint x="640" y="2296" as="sourcePoint" />
            <mxPoint x="659" y="2306" as="targetPoint" />
          </mxGeometry>
        </mxCell>
        <mxCell id="KoBdJGmI44apPWLvyjWZ-224" value="fin" style="ellipse;whiteSpace=wrap;html=1;" parent="1" vertex="1">
          <mxGeometry x="639.22" y="2310" width="39.38" height="28" as="geometry" />
        </mxCell>
        <mxCell id="KoBdJGmI44apPWLvyjWZ-226" value="" style="endArrow=none;html=1;rounded=0;" parent="1" edge="1">
          <mxGeometry width="50" height="50" relative="1" as="geometry">
            <mxPoint x="740" y="2330" as="sourcePoint" />
            <mxPoint x="740" y="1700" as="targetPoint" />
          </mxGeometry>
        </mxCell>
        <mxCell id="KoBdJGmI44apPWLvyjWZ-227" value="" style="endArrow=classic;html=1;rounded=0;" parent="1" edge="1">
          <mxGeometry width="50" height="50" relative="1" as="geometry">
            <mxPoint x="740" y="2330" as="sourcePoint" />
            <mxPoint x="680" y="2330" as="targetPoint" />
          </mxGeometry>
        </mxCell>
      </root>
    </mxGraphModel>
  </diagram>
</mxfile>
